<?xml version="1.0" encoding="UTF-8" standalone="no"?>
<!-- Created with Inkscape (http://www.inkscape.org/) -->

<svg
   version="1.1"
   id="svg1"
   width="61"
   height="67.5"
   viewBox="0 0 61 67.5"
   sodipodi:docname="snowflake.svg"
   inkscape:version="1.3.2 (091e20e, 2023-11-25)"
   xmlns:inkscape="http://www.inkscape.org/namespaces/inkscape"
   xmlns:sodipodi="http://sodipodi.sourceforge.net/DTD/sodipodi-0.dtd"
   xmlns="http://www.w3.org/2000/svg"
   xmlns:svg="http://www.w3.org/2000/svg">
  <defs
     id="defs1" />
  <sodipodi:namedview
     id="namedview1"
     pagecolor="#ffffff"
     bordercolor="#000000"
     borderopacity="0.25"
     inkscape:showpageshadow="2"
     inkscape:pageopacity="0.0"
     inkscape:pagecheckerboard="0"
     inkscape:deskcolor="#d1d1d1"
     showgrid="false"
     inkscape:zoom="4.0444444"
     inkscape:cx="30.782967"
     inkscape:cy="52.541209"
     inkscape:window-width="1512"
     inkscape:window-height="864"
     inkscape:window-x="0"
     inkscape:window-y="268"
     inkscape:window-maximized="1"
     inkscape:current-layer="g1" />
  <g
     inkscape:groupmode="layer"
     inkscape:label="Image"
     id="g1">
    <path
       style="fill:#638dfc;fill-opacity:1"
       d="m 29.023619,61.549072 c 0,-2.429166 -0.137619,-4.554285 -0.30582,-4.722486 -0.168201,-0.168201 -1.711265,0.581799 -3.429031,1.666666 -1.717766,1.084868 -3.342127,1.972487 -3.60969,1.972487 -0.267564,0 -0.799624,-0.585117 -1.182357,-1.300259 -0.800959,-1.496605 -1.183152,-1.106327 4.737664,-4.837879 l 3.789234,-2.388138 v -6.986862 c 0,-3.925767 -0.201784,-6.986862 -0.460567,-6.986862 -0.387655,0 -3.898992,1.961057 -10.648731,5.947241 -1.325145,0.782589 -1.362833,0.934667 -1.5,6.052759 l -0.140702,5.25 -1.625,0.156679 -1.625,0.156679 v -4.281679 c 0,-2.354923 -0.09741,-4.281679 -0.216459,-4.281679 -0.119052,0 -2.068699,1.125 -4.3325488,2.5 -2.2638499,1.375 -4.2570659,2.5 -4.4293689,2.5 -0.172303,0 -0.668644,-0.784027 -1.102982,-1.742282 -0.915756,-2.020384 -1.174589,-1.729773 4.267634,-4.791602 L 11.146169,43.217282 7.2098943,41.357355 c -2.164951,-1.02296 -4.149483,-1.938127 -4.410071,-2.033704 -0.4132,-0.151551 0.550358,-3.357912 1.009102,-3.357912 0.09019,0 2.582646,1.140725 5.5387884,2.534946 5.8748643,2.770791 5.2461643,2.76537 9.6976293,0.08363 1.249449,-0.752717 3.44297,-2.043577 4.874492,-2.868577 1.431522,-0.825 2.602996,-1.646008 2.603276,-1.824462 2.79e-4,-0.178455 -2.712745,-1.916107 -6.028944,-3.86145 l -6.029452,-3.536987 -4.9870799,2.569917 c -5.1115358,2.634051 -5.7972568,2.688469 -6.0646458,0.481287 -0.117786,-0.972266 0.420165,-1.435231 3.473552,-2.98937 1.9871079,-1.011414 3.6183577,-1.96464 3.6250007,-2.11828 0.0066,-0.153639 -1.8790189,-1.37214 -4.1903587,-2.707779 l -4.202436,-2.428434 0.795042,-1.667221 c 0.437273,-0.916971 0.994112,-1.66722 1.23742,-1.66722 0.243308,0 2.110305,1.0125 4.1488834,2.25 2.0385783,1.2375 3.8228353,2.25 3.9650153,2.25 0.142181,0 0.258511,-1.97982 0.258511,-4.3996 V 11.66654 l 1.75,0.204302 1.75,0.204303 0.05924,4.820297 c 0.03258,2.651163 0.04162,5.045297 0.02008,5.320297 -0.02154,0.275 2.033054,1.712117 4.565759,3.193593 2.532705,1.481475 5.228488,3.123025 5.99063,3.647888 0.762141,0.524862 1.605891,0.818217 1.875,0.651899 0.279573,-0.172784 0.489291,-3.167365 0.489291,-6.986598 0,-7.651373 0.540875,-6.679838 -5.956285,-10.698856 -1.949043,-1.205641 -3.538712,-2.3306398 -3.532597,-2.4999998 0.0061,-0.169359 0.42045,-0.840183 0.920745,-1.49072 l 0.909627,-1.182794 3.258286,2.057794 c 1.792058,1.1317868 3.515223,2.0577938 3.829255,2.0577938 0.387891,0 0.570969,-1.5230648 0.570969,-4.7499998 v -4.75 h 1.982508 1.982509 l 0.142491,5.024719 0.142492,5.0247188 3.647841,-2.3352108 c 2.006313,-1.284366 3.705662,-2.251739 3.77633,-2.149719 0.07067,0.102021 0.496403,0.774979 0.946076,1.495462 l 0.817587,1.30997 -4.053204,2.6130658 c -2.229262,1.437187 -4.352775,2.728023 -4.718917,2.868525 -0.511617,0.196325 -0.665713,1.921275 -0.665713,7.451963 0,3.958078 0.131034,7.196506 0.291186,7.196506 0.471354,0 10.895948,-6.041586 11.631061,-6.740795 0.459517,-0.437073 0.703476,-2.20243 0.770931,-5.578668 0.05428,-2.71659 0.248108,-5.181028 0.430739,-5.47653 0.18263,-0.295502 1.016961,-0.436753 1.854069,-0.313892 l 1.522014,0.223384 v 4.193251 c 0,2.306287 0.104519,4.19325 0.232265,4.19325 0.127746,0 1.96026,-1.04909 4.072252,-2.331311 3.698096,-2.245168 3.866383,-2.295975 4.554372,-1.375 1.817024,2.432356 1.819858,2.427054 -2.632938,4.92644 -2.325107,1.3051 -4.134007,2.524131 -4.019777,2.708959 0.11423,0.184828 1.858321,1.11476 3.875758,2.066514 2.017438,0.951755 3.740909,1.77119 3.829936,1.820966 0.192011,0.107354 -1.360652,3.183432 -1.60685,3.183432 -0.09312,0 -2.393588,-1.096567 -5.11216,-2.436817 l -4.942858,-2.436816 -2.25,1.187164 c -4.404501,2.323941 -9.70402,5.548955 -9.841818,5.989223 -0.07699,0.245985 2.49009,1.978467 5.704623,3.849959 l 5.844605,3.402714 4.833539,-2.527714 c 2.658446,-1.390242 5.050663,-2.527713 5.316037,-2.527713 0.562176,0 1.757403,2.414576 1.441687,2.912468 -0.117718,0.185643 -1.804098,1.125032 -3.747512,2.087532 -1.943413,0.9625 -3.464305,1.975 -3.379759,2.25 0.130595,0.42478 1.412016,1.253458 7.316267,4.731336 0.642823,0.378653 0.62672,0.667181 -0.125239,2.244057 -0.980644,2.05643 -0.621532,2.131667 -6.246237,-1.30863 -1.723593,-1.05422 -3.251407,-1.916763 -3.39514,-1.916763 -0.143734,0 -0.110842,1.9125 0.07309,4.25 l 0.334427,4.25 h -1.746324 c -1.698478,0 -1.755036,-0.06356 -2.064286,-2.319786 -0.174877,-1.275882 -0.31796,-3.710624 -0.31796,-5.410537 v -3.090752 l -4.125,-2.332731 c -2.26875,-1.283002 -5.08125,-2.911013 -6.25,-3.617803 l -2.125,-1.285071 v 7.52834 c 0,4.63461 0.190258,7.52834 0.494975,7.52834 0.746181,0 9.005025,5.163287 9.005025,5.629786 0,0.222969 -0.357041,0.95031 -0.793424,1.616315 l -0.793423,1.210917 -3.956577,-2.453946 -3.956576,-2.453947 v 4.975438 4.975437 h -2 -2 z"
       id="path1" />
  </g>
</svg>
